<?xml version="1.0" encoding="utf-8"?>
<!-- Svg Vector Icons : http://www.onlinewebfonts.com/icon -->
<!DOCTYPE svg PUBLIC "-//W3C//DTD SVG 1.1//EN" "http://www.w3.org/Graphics/SVG/1.1/DTD/svg11.dtd">
<svg version="1.1" xmlns="http://www.w3.org/2000/svg" xmlns:xlink="http://www.w3.org/1999/xlink" x="0px" y="0px" viewBox="0 0 1000 1000" enable-background="new 0 0 1000 1000" xml:space="preserve">
<metadata> Svg Vector Icons : http://www.onlinewebfonts.com/icon </metadata>
<g><path d="M281,599.2c-14.5-11-30.8-18.7-47.7-25.5c-34.4-13.6-70.3-18.5-107-17.5c-8.6,0-17.3,0.7-26.2,1.2c0-0.7-0.7-1.6-0.7-2.8c-2.3-26.2-5.1-52.3-7-78.1c-1.6-21.5-2.3-43-2.8-64.5c-0.7-41.4-0.7-82.5-0.7-123.9c0-9.8-0.7-8.6-8.2-5.4c-23.1,9.3-46,18.5-69.2,27.3c-0.7,0.7-1.9,3-1.4,4.2c7,26.2,12.2,53,15.7,79.7c3.5,23.1,6.5,45.6,9.8,68.2c2.8,19.9,4.7,39.7,7,59.8c2.3,20.3,5.1,40.7,7.5,61.2c2.3,19.6,4.7,38.6,7,58.2c1.6,14,3,27.8,4.2,41.8c0.7,11,1.6,22,1.9,32.5c0,2.3,0.7,3.5,3,3.5c5.1,0,9.8,0.7,14.7,0c23.8-2.3,47.7-4,71-7.5c18-2.8,35.5-7,52.8-12.9c24.5-8.2,45.6-22.2,65.9-38.3c8.6-6.5,15.7-14.5,18.7-24.5C295.9,619.5,293.1,608.3,281,599.2L281,599.2z M146.4,677c-3.5-26.2-7-51.6-10.5-76.9c13.6,3,70.6,25.7,73.4,29.2C188.4,645,167.9,660.9,146.4,677L146.4,677z M418.4,611.8c-1.2-13.6-2.3-27.8-4-41.4c-1.6-18.7-3.5-37.4-5.1-56.3c-1.6-17.3-2.3-34.4-3.5-51.6c-1.6-23.8-3.5-47.7-5.1-71.5l-3.5-52.8c-0.5-6.5-3-8.2-9.8-7.7c-8.2,0.7-16.1,1.2-24.3,1.6c-7,0.7-14,1.6-20.8,2.3c21,111.7,30.4,223.6,41.4,334.7c12.9,1.2,24.5,1.9,36.7,3c2.3,0.5,3.5,0,3.5-2.3l-1.2-12.9C421.6,641.5,420,626.5,418.4,611.8L418.4,611.8z M354.3,625.8c-1.6-14-3-27.8-4.7-41.8c-1.6-15.9-3-32-5.1-47.9c-1.2-9.8-2.8-19.2-4.2-28.5c-0.5-3.5-2.8-5.1-6.5-4.7c-6.5,0.7-13.6,0.7-20.3,1.6c-9.3,1.2-18.7,2.8-28.5,4c11.7,61,23.4,120.6,35.5,181.1c14-1.9,27.3-3.5,40.9-5.1c-0.5-4.7-1.2-9.3-1.6-13.6C357.8,655.5,356,640.5,354.3,625.8L354.3,625.8z M494.1,688.2c-0.5-23.1-1.2-45.6-1.6-68.7c-0.5-28.5,0-57.5,0-86c0-6.3-0.5-12.2-0.7-18.5c0-2.8-1.6-5.1-4.7-5.1c-12.2-0.5-24.5-0.7-36.7-0.7c-4.7,0-8.9,0.7-13.6,1.6c0.5,1.6,0.5,2.8,0.5,4c1.6,19.6,3.5,39,5.1,58.2c1.6,18.7,3.5,37.9,5.1,56.6c1.9,20.3,3.5,40.7,5.4,61c0,1.2,1.9,3,3,3c12.4,0.5,25.5,0,38.6,0C494.1,691,494.1,689.4,494.1,688.2L494.1,688.2z M336.3,480.5c-2.3-22.2-4.2-43.2-6.3-64.7c-0.5-2.8-1.6-4.2-4-4.2c-7.5,0-15.2,0-23.1,0.5c3,23.8,5.8,46.7,8.9,70.3C320.5,481.6,328.2,481.4,336.3,480.5L336.3,480.5z M490.6,484v-59.4c0-4.2-1.6-5.4-5.1-5.4h-20.3v68.2c8.9,0.5,17.3,0.7,25.5,1.2V484L490.6,484z M302,483.3v-4.7c-1.2-12.2-2.8-23.8-4-36c-0.7-7.7-1.6-15.2-2.3-23.1c-0.5-1.9,0.5-4.7-2.8-4.2c-7.5,0.7-14.7,2.3-22.2,3c4.2,23.1,8.2,45.6,12.4,68.2L302,483.3L302,483.3z M456.7,487.2v-35.5c0-9.3-0.5-19.2,0-28.5c0-3.5-1.2-4.2-4.2-4.2h-20.8c1.9,24.3,3.5,47.2,5.4,69.9C443.4,488.4,449.7,487.9,456.7,487.2L456.7,487.2z"/><path d="M776.4,599.2c-14.5-11-30.8-18.7-47.7-25.5c-34.4-13.6-70.3-18.5-107-17.5c-8.6,0-17.3,0.7-26.2,1.2c0-0.7-0.7-1.6-0.7-2.8c-2.3-26.2-5.1-52.3-7-78.1c-1.6-21.5-2.3-43-2.8-64.5c-0.7-41.4-0.7-82.5-0.7-123.9c0-9.8-0.7-8.6-8.2-5.4c-23.1,9.3-46,18.5-69.2,27.3c-0.7,0.5-1.9,2.8-1.6,4c7,26.2,12.2,53,15.7,79.7c3.5,23.1,6.5,45.6,9.8,68.2c2.8,19.9,4.7,39.7,7,59.8c2.3,20.3,5.1,40.7,7.5,61.2c2.3,19.6,4.7,38.6,7,58.2c1.6,14,3,27.8,4.2,41.8c0.7,11,1.6,22,1.9,32.5c0,2.3,0.7,3.5,3,3.5c5.1,0,9.8,0.7,14.7,0c23.8-2.3,47.7-4,71-7.5c18-2.8,35.5-7,52.8-12.9c24.5-8.2,45.6-22.2,65.9-38.3c8.6-6.5,15.7-14.5,18.7-24.5C791.4,619.5,788.6,608.3,776.4,599.2L776.4,599.2z M641.8,677c-3.5-26.2-7-51.6-10.5-76.9c13.6,3,70.6,25.7,73.4,29.2C683.9,645,663.3,660.9,641.8,677L641.8,677z M913.8,611.8c-1.2-13.6-2.3-27.8-4-41.4c-1.6-18.7-3.5-37.4-5.1-56.3c-1.6-17.3-2.3-34.4-3.5-51.6c-1.6-23.8-3.5-47.7-5.1-71.5l-3.5-52.8c-0.5-6.5-3-8.2-9.8-7.7c-8.2,0.7-16.1,1.2-24.3,1.6c-7,0.7-14,1.6-20.8,2.3C858.7,446.1,868,558,879,669c12.9,1.2,24.5,1.9,36.7,3c2.3,0.5,3.5,0,3.5-2.3l-1.2-12.9C917.1,641.5,915.5,626.5,913.8,611.8L913.8,611.8z M849.8,625.8c-1.6-14-3-27.8-4.7-41.8c-1.6-15.9-3-32-5.1-47.9c-1.2-9.8-2.8-19.2-4.2-28.5c-0.5-3.5-2.8-5.1-6.5-4.7c-6.5,0.7-13.6,0.7-20.3,1.6c-9.3,1.2-18.7,2.8-28.5,4c11.7,61,23.4,120.6,35.5,181.1c14-1.9,27.3-3.5,40.9-5.1c-0.5-4.7-1.2-9.3-1.6-13.6C853.3,655.5,851.4,640.5,849.8,625.8L849.8,625.8z M989.5,688.2c-0.5-23.1-1.2-45.6-1.6-68.7c-0.5-28.5,0-57.5,0-86c0-6.3-0.5-12.2-0.7-18.5c0-2.8-1.6-5.1-4.7-5.1c-12.2-0.5-24.5-0.7-36.7-0.7c-4.7,0-8.9,0.7-13.6,1.6c0.5,1.6,0.5,2.8,0.5,4c1.6,19.6,3.5,39,5.1,58.2c1.6,18.7,3.5,37.9,5.1,56.6c1.9,20.3,3.5,40.7,5.4,61c0,1.2,1.9,3,3,3c12.4,0.5,25.5,0,38.6,0C989.5,691,989.5,689.4,989.5,688.2L989.5,688.2z M831.8,480.5c-2.3-22.2-4.2-43.2-6.3-64.7c-0.5-2.8-1.6-4.2-4-4.2c-7.5,0-15.2,0-23.1,0.5c3,23.8,5.8,46.7,8.9,70.3C815.9,481.6,823.6,481.4,831.8,480.5L831.8,480.5z M986,484v-59.4c0-4.2-1.6-5.4-5.1-5.4h-20.3v68.2c8.9,0.5,17.3,0.7,25.5,1.2V484L986,484z M797.4,483.3v-4.7c-1.2-12.2-2.8-23.8-4-36c-0.7-7.7-1.6-15.2-2.3-23.1c-0.5-1.9,0.5-4.7-2.8-4.2c-7.5,0.7-14.7,2.3-22.2,3c4.2,23.1,8.2,45.6,12.4,68.2L797.4,483.3L797.4,483.3z M952.1,487.2v-35.5c0-9.3-0.5-19.2,0-28.5c0-3.5-1.2-4.2-4.2-4.2h-20.8c1.9,24.3,3.5,47.2,5.4,69.9C938.8,488.4,945.1,487.9,952.1,487.2L952.1,487.2z"/></g>
</svg>