<?xml version="1.0" standalone="no"?>
<!DOCTYPE svg PUBLIC "-//W3C//DTD SVG 20010904//EN"
 "http://www.w3.org/TR/2001/REC-SVG-20010904/DTD/svg10.dtd">
<svg version="1.0" xmlns="http://www.w3.org/2000/svg"
 width="1280.000000pt" height="1280.000000pt" viewBox="0 0 1280.000000 1280.000000"
 preserveAspectRatio="xMidYMid meet">
<metadata>
Created by potrace 1.15, written by Peter Selinger 2001-2017
</metadata>
<g transform="translate(0.000000,1280.000000) scale(0.100000,-0.100000)"
fill="#000000" stroke="none">
<path d="M9574 8620 c-546 -40 -976 -229 -1295 -568 -96 -102 -181 -217 -245
-329 -24 -43 -48 -85 -53 -93 -7 -10 -9 93 -4 325 l6 340 -24 28 c-16 19 -82
51 -204 103 l-180 75 -340 -10 c-187 -6 -414 -13 -505 -16 -192 -6 -875 -27
-1680 -51 -311 -9 -575 -21 -587 -25 -12 -4 -29 -19 -38 -33 -15 -23 -15 -111
-1 -1138 9 -612 16 -1189 16 -1283 l-1 -170 -28 85 c-35 107 -96 227 -153 305
-25 33 -110 132 -190 220 -201 223 -342 323 -592 422 -66 26 -111 49 -101 50
11 2 202 21 425 43 485 48 466 45 497 76 23 23 24 29 18 87 -10 83 -58 276
-89 360 -59 154 -155 311 -253 412 -56 59 -249 224 -346 297 -110 84 -322 175
-502 216 -196 46 -314 56 -615 56 -309 0 -471 -14 -700 -60 -420 -84 -761
-288 -945 -564 -166 -249 -228 -527 -180 -806 19 -111 115 -403 165 -506 136
-275 376 -468 769 -618 113 -44 120 -48 90 -53 -19 -3 -266 -31 -549 -63 -283
-31 -526 -61 -540 -68 -45 -20 -52 -52 -35 -152 19 -106 96 -417 131 -529 60
-191 187 -408 324 -557 230 -250 503 -372 945 -424 196 -23 705 -15 915 15
483 67 803 194 1083 430 205 172 368 430 442 701 l24 85 1 -175 c1 -96 5 -254
9 -350 l6 -175 114 -155 c62 -85 121 -161 129 -167 21 -17 85 -16 431 7 163
11 544 36 846 55 303 20 649 42 770 50 121 8 432 28 690 45 259 17 480 33 492
35 12 3 31 14 41 25 18 19 19 50 26 470 5 324 4 456 -4 471 -7 11 -93 81 -192
155 l-180 134 -64 0 c-36 0 -140 -4 -232 -10 -92 -5 -297 -16 -457 -25 -159
-8 -330 -17 -380 -20 -241 -14 -432 -25 -447 -25 -16 0 -18 14 -18 159 l0 159
153 6 c83 4 172 9 197 11 25 2 110 7 190 11 750 34 1189 61 1212 76 l24 16 12
-58 c33 -159 128 -385 225 -533 68 -104 189 -249 258 -308 65 -54 429 -328
514 -386 266 -179 631 -267 1075 -258 650 14 1116 188 1481 554 393 395 579
929 579 1666 0 260 -25 456 -85 665 -133 462 -433 808 -855 986 -99 42 -653
212 -760 234 -196 39 -466 56 -676 40z m551 -1211 c111 -133 166 -420 145
-761 -25 -412 -91 -621 -243 -765 -117 -111 -252 -163 -420 -163 -100 0 -101
1 -138 106 -50 144 -60 218 -66 470 -8 365 26 582 123 782 88 182 257 312 449
346 115 20 120 20 150 -15z m-2258 -61 c-2 -13 -16 -69 -31 -124 -14 -56 -34
-149 -44 -207 l-17 -106 -170 99 c-128 76 -178 100 -205 100 -59 0 -1230 -49
-1307 -54 l-73 -6 0 120 c0 116 1 120 23 124 12 3 166 10 342 16 176 6 473 17
660 25 187 8 426 17 530 21 105 4 191 7 192 8 1 0 25 2 53 4 50 3 52 2 47 -20z
m-5264 -29 c40 -6 98 -22 129 -36 62 -27 73 -44 98 -151 7 -32 28 -74 51 -104
21 -29 37 -53 36 -55 -2 -1 -32 5 -67 13 -36 8 -175 35 -310 59 -250 46 -405
80 -429 94 -19 12 9 61 60 105 84 72 256 102 432 75z m-458 -1619 c77 -16 228
-45 335 -64 274 -49 462 -105 468 -140 7 -34 -29 -106 -77 -155 -91 -93 -209
-134 -391 -135 -175 -1 -291 37 -390 130 -42 39 -49 53 -58 102 -6 31 -38 115
-71 186 -34 71 -61 130 -61 131 0 2 24 -3 53 -11 28 -7 115 -27 192 -44z"/>
</g>
</svg>
